<svg xmlns="http://www.w3.org/2000/svg" width="62.698" height="62.698" viewBox="0 0 62.698 62.698">
  <g id="Group_3417" data-name="Group 3417" transform="translate(-1403.698 -617)">
    <path id="Path_3358" data-name="Path 3358" d="M31.349,0A31.349,31.349,0,1,1,0,31.349,31.349,31.349,0,0,1,31.349,0Z" transform="translate(1403.698 617)" fill="#f5ac37"/>
    <path id="Path_3359" data-name="Path 3359" d="M102.653,118.279h11.912c.254,0,.374,0,.392-.333a22.769,22.769,0,0,0,0-3.644c0-.236-.117-.333-.372-.333H90.878c-.293,0-.372.1-.372.372v3.487c0,.45,0,.45.47.45h11.678Zm10.974-8.385a.381.381,0,0,0,0-.274,7.746,7.746,0,0,0-.708-1.234,10,10,0,0,0-1.45-1.823,4.807,4.807,0,0,0-.9-.882,14.084,14.084,0,0,0-5.879-2.978,14.612,14.612,0,0,0-3.331-.353H90.837c-.293,0-.333.117-.333.372v6.955c0,.293,0,.372.372.372h22.61s.2-.039.236-.157h-.1Zm0,12.461a4.572,4.572,0,0,0-1,0H90.9c-.293,0-.392,0-.392.392v6.8c0,.313,0,.392.392.392h10.032a5.011,5.011,0,0,0,1.429-.1,14.934,14.934,0,0,0,4.253-.941,7.784,7.784,0,0,0,1.429-.666h.137a12.729,12.729,0,0,0,5.467-5.5s.137-.3-.017-.374ZM86.568,133.464V122.629c0-.255,0-.293-.313-.293H82c-.236,0-.333,0-.333-.313V118.3h4.545c.254,0,.353,0,.353-.333v-3.683c0-.236,0-.293-.313-.293H82c-.236,0-.333,0-.333-.313v-3.448c0-.216,0-.274.313-.274H86.2c.293,0,.372,0,.372-.372V99.022c0-.313,0-.392.392-.392h14.694a22.39,22.39,0,0,1,3.174.353,19.152,19.152,0,0,1,6.132,2.273,17.283,17.283,0,0,1,3.448,2.665,18.879,18.879,0,0,1,2.1,2.606,15.715,15.715,0,0,1,1.531,3,.51.51,0,0,0,.585.412h3.507c.45,0,.45,0,.47.432v3.214c0,.313-.117.392-.432.392h-2.7c-.274,0-.353,0-.333.353a20.014,20.014,0,0,1,0,3.585c0,.333,0,.372.374.372H122.6c.137.176,0,.353,0,.53a3.956,3.956,0,0,1,0,.684v2.371c0,.333-.1.432-.392.432h-3.7a.49.49,0,0,0-.569.372,15.667,15.667,0,0,1-4.115,6,23.6,23.6,0,0,1-2.1,1.684c-.784.451-1.548.921-2.352,1.294a21.184,21.184,0,0,1-4.624,1.469,24.108,24.108,0,0,1-4.585.372h-13.6v-.02Z" transform="translate(1333.55 532.284)" fill="#fefefd"/>
  </g>
</svg>
