<svg xmlns="http://www.w3.org/2000/svg" width="63.424" height="55.175" viewBox="0 0 63.424 55.175">
  <g id="Group_3415" data-name="Group 3415" transform="translate(-917.195 -620.341)">
    <path id="Path_3366" data-name="Path 3366" d="M11.618.271.053,24.563a.471.471,0,0,0,.1.549l31.234,29.93a.477.477,0,0,0,.66,0L63.281,25.114a.471.471,0,0,0,.1-.549L51.817.273A.467.467,0,0,0,51.391,0H12.048a.467.467,0,0,0-.43.271Z" transform="translate(917.19 620.341)" fill="#50af95" fill-rule="evenodd"/>
    <path id="Path_3367" data-name="Path 3367" d="M87.968,59.619h0c-.225.017-1.389.085-3.986.085-2.065,0-3.531-.061-4.046-.085h0C71.956,59.272,66,57.9,66,56.257s5.957-3.013,13.938-3.365v5.36c.522.037,2.016.124,4.081.124,2.478,0,3.719-.1,3.943-.122V52.9c7.964.35,13.908,1.722,13.908,3.362s-5.942,3.011-13.908,3.36h0Zm0-7.278v-4.8H99.082V40.23H68.822v7.315H79.935v4.795c-9.032.41-15.825,2.177-15.825,4.294s6.792,3.883,15.825,4.294V76.3h8.032V60.922c9.012-.41,15.793-2.175,15.793-4.29s-6.776-3.881-15.793-4.292h0Zm0,0Z" transform="translate(864.971 587.57)" fill="#fff" fill-rule="evenodd"/>
  </g>
</svg>
