<svg id="usd-coin-usdc-logo" xmlns="http://www.w3.org/2000/svg" width="62.698" height="62.698" viewBox="0 0 62.698 62.698">
  <path id="Path_3349" data-name="Path 3349" d="M31.349,62.7A31.349,31.349,0,1,0,0,31.349,31.274,31.274,0,0,0,31.349,62.7Z" fill="#2775ca"/>
  <path id="Path_3350" data-name="Path 3350" d="M734.173,528.707c0-4.572-2.743-6.139-8.229-6.792-3.919-.523-4.7-1.567-4.7-3.4s1.306-3,3.919-3c2.351,0,3.658.784,4.311,2.743a.982.982,0,0,0,.914.653h2.09a.893.893,0,0,0,.914-.914v-.131a6.526,6.526,0,0,0-5.878-5.355v-3.135c0-.523-.392-.914-1.045-1.045h-1.959c-.523,0-.914.392-1.045,1.045v3c-3.919.523-6.4,3.135-6.4,6.4,0,4.31,2.612,6.008,8.1,6.662,3.658.653,4.833,1.437,4.833,3.527s-1.829,3.527-4.311,3.527c-3.4,0-4.572-1.437-4.964-3.4a.954.954,0,0,0-.914-.784h-2.221a.893.893,0,0,0-.914.914v.131c.522,3.265,2.612,5.617,6.923,6.27v3.135c0,.522.392.914,1.045,1.045H726.6c.523,0,.914-.392,1.045-1.045V535.63C731.561,534.977,734.173,532.234,734.173,528.707Z" transform="translate(-694.203 -492.394)" fill="#fff"/>
  <path id="Path_3351" data-name="Path 3351" d="M264.88,332.554a19.546,19.546,0,0,1,0-36.7,1.311,1.311,0,0,0,.784-1.306v-1.829a.993.993,0,0,0-.784-1.045.787.787,0,0,0-.523.13,23.506,23.506,0,0,0,0,44.8.794.794,0,0,0,1.176-.523c.131-.13.131-.261.131-.522V333.73A1.74,1.74,0,0,0,264.88,332.554ZM278.726,291.8a.794.794,0,0,0-1.176.523c-.131.131-.131.261-.131.523v1.829a1.733,1.733,0,0,0,.784,1.306,19.546,19.546,0,0,1,0,36.7,1.311,1.311,0,0,0-.784,1.306v1.829a.993.993,0,0,0,.784,1.045.787.787,0,0,0,.523-.13,23.606,23.606,0,0,0,0-44.934Z" transform="translate(-240.192 -282.526)" fill="#fff"/>
</svg>
